<svg xmlns="http://www.w3.org/2000/svg" height="512pt" version="1.1" viewBox="0 0 512.00074 512" width="512pt">
<g id="surface1">
<path d="M 436.453125 121.734375 C 423.699219 134.488281 368.734375 168.773438 355.980469 156.019531 C 343.230469 143.265625 377.515625 88.304688 390.265625 75.550781 C 403.019531 62.796875 423.699219 62.796875 436.453125 75.550781 C 449.203125 88.304688 449.203125 108.980469 436.453125 121.734375 Z M 436.453125 121.734375 " style=" stroke:none;fill-rule:nonzero;fill:rgb(62.745098%,89.803922%,34.117647%);fill-opacity:1;" />
<path d="M 371.8125 323.722656 C 413.765625 281.773438 406.6875 206.679688 356.003906 155.996094 C 305.320312 105.3125 230.226562 98.234375 188.277344 140.1875 C 146.324219 182.136719 -22.863281 457.804688 15.664062 496.335938 C 54.195312 534.863281 329.863281 365.675781 371.8125 323.722656 Z M 371.8125 323.722656 " style=" stroke:none;fill-rule:nonzero;fill:rgb(100%,36.470588%,36.470588%);fill-opacity:1;" />
<path d="M 471.5625 185.152344 C 488.371094 185.152344 502 171.523438 502 154.714844 C 502 137.90625 488.371094 124.277344 471.5625 124.277344 C 454.753906 124.277344 415.796875 131.234375 366.90625 168.011719 C 411.394531 163.03125 454.753906 185.152344 471.5625 185.152344 Z M 471.5625 185.152344 " style=" stroke:none;fill-rule:nonzero;fill:rgb(62.745098%,89.803922%,34.117647%);fill-opacity:1;" />
<path d="M 326.847656 40.4375 C 326.847656 23.628906 340.476562 10 357.285156 10 C 374.09375 10 387.722656 23.628906 387.722656 40.4375 C 387.722656 57.246094 380.765625 96.203125 343.988281 145.09375 C 348.96875 100.605469 326.847656 57.246094 326.847656 40.4375 Z M 326.847656 40.4375 " style=" stroke:none;fill-rule:nonzero;fill:rgb(62.745098%,89.803922%,34.117647%);fill-opacity:1;" />
<path d="M 202.421875 299.789062 C 199.792969 299.789062 197.210938 300.859375 195.351562 302.71875 C 193.492188 304.578125 192.421875 307.160156 192.421875 309.789062 C 192.421875 312.429688 193.492188 315 195.351562 316.859375 C 197.210938 318.726562 199.792969 319.789062 202.421875 319.789062 C 205.0625 319.789062 207.632812 318.726562 209.492188 316.859375 C 211.363281 315 212.421875 312.429688 212.421875 309.789062 C 212.421875 307.160156 211.363281 304.578125 209.492188 302.71875 C 207.632812 300.859375 205.0625 299.789062 202.421875 299.789062 Z M 202.421875 299.789062 " style=" stroke:none;fill-rule:nonzero;fill:rgb(0%,0%,0%);fill-opacity:1;" />
<path d="M 471.5625 114.277344 C 467.921875 114.277344 461.285156 114.597656 452.175781 116.320312 C 459.316406 100.59375 456.4375 81.390625 443.519531 68.476562 C 430.605469 55.5625 411.40625 52.683594 395.679688 59.824219 C 397.402344 50.714844 397.722656 44.078125 397.722656 40.4375 C 397.722656 18.140625 379.582031 0 357.285156 0 C 334.988281 0 316.847656 18.140625 316.847656 40.4375 C 316.847656 47.644531 319.597656 57.035156 323.082031 68.925781 C 327.699219 84.679688 333.644531 104.976562 334.585938 126.066406 C 314.566406 113.378906 292.378906 105.527344 269.804688 103.398438 C 235.101562 100.125 203.640625 110.683594 181.207031 133.113281 C 157.667969 156.652344 103.535156 239.84375 62.996094 314.785156 C 39.332031 358.527344 21.363281 397.347656 11.035156 427.046875 C -2.835938 466.9375 -3.609375 491.199219 8.59375 503.40625 C 14.320312 509.132812 22.699219 512 34.101562 512 C 47.003906 512 63.78125 508.328125 84.953125 500.964844 C 114.652344 490.636719 153.472656 472.667969 197.214844 449.003906 C 272.15625 408.464844 355.351562 354.332031 378.886719 330.792969 C 401.320312 308.359375 411.875 276.894531 408.601562 242.195312 C 406.472656 219.625 398.625 197.433594 385.933594 177.414062 C 407.023438 178.355469 427.320312 184.300781 443.078125 188.917969 C 454.964844 192.398438 464.355469 195.152344 471.5625 195.152344 C 493.859375 195.152344 512 177.011719 512 154.714844 C 512 132.417969 493.859375 114.277344 471.5625 114.277344 Z M 429.378906 82.621094 C 438.214844 91.453125 438.214844 105.828125 429.378906 114.664062 C 424.183594 119.859375 409.742188 130.023438 394.570312 138.035156 C 375.730469 147.984375 366.105469 149.175781 363.234375 148.765625 C 362.820312 145.894531 364.015625 136.265625 373.964844 117.433594 C 381.976562 102.257812 392.140625 87.816406 397.335938 82.621094 C 406.171875 73.789062 420.546875 73.785156 429.378906 82.621094 Z M 357.285156 20 C 368.554688 20 377.722656 29.167969 377.722656 40.4375 C 377.722656 46.386719 376.351562 73.742188 353.558594 112.789062 C 351.328125 94.195312 346.328125 77.128906 342.277344 63.300781 C 339.484375 53.773438 336.847656 44.773438 336.847656 40.4375 C 336.847656 29.167969 346.015625 20 357.285156 20 Z M 364.742188 316.652344 C 362.367188 319.027344 359.128906 321.886719 355.140625 325.144531 C 354.910156 324.855469 354.664062 324.570312 354.394531 324.300781 L 283.8125 253.722656 C 279.90625 249.816406 273.574219 249.816406 269.671875 253.722656 C 265.765625 257.625 265.765625 263.957031 269.671875 267.863281 L 339.199219 337.390625 C 309.902344 358.878906 262.585938 389.367188 211.933594 418 L 173.175781 379.242188 C 169.269531 375.335938 162.9375 375.335938 159.03125 379.242188 C 155.125 383.144531 155.125 389.476562 159.03125 393.382812 L 193.761719 428.113281 C 191.742188 429.21875 189.722656 430.320312 187.699219 431.414062 C 144.886719 454.578125 107.085938 472.09375 78.386719 482.074219 C 34.007812 497.503906 24.242188 490.769531 22.738281 489.265625 C 21.230469 487.757812 14.496094 477.996094 29.925781 433.617188 C 34 421.90625 39.347656 408.65625 45.804688 394.1875 L 81.808594 430.195312 C 83.761719 432.148438 86.320312 433.121094 88.878906 433.121094 C 91.4375 433.121094 94 432.148438 95.949219 430.195312 C 99.855469 426.289062 99.855469 419.957031 95.949219 416.050781 L 54.9375 375.039062 C 54.875 374.976562 54.808594 374.921875 54.742188 374.863281 C 62.292969 359.070312 70.941406 342.128906 80.585938 324.300781 C 95.066406 297.535156 110.515625 271.046875 125.402344 246.914062 L 161.035156 282.546875 C 162.988281 284.5 165.546875 285.476562 168.105469 285.476562 C 170.664062 285.476562 173.226562 284.496094 175.175781 282.546875 C 179.082031 278.640625 179.082031 272.308594 175.175781 268.402344 L 136.644531 229.867188 C 136.523438 229.75 136.398438 229.648438 136.277344 229.539062 C 161.546875 189.753906 183.949219 158.660156 195.347656 147.257812 C 195.429688 147.175781 195.519531 147.097656 195.605469 147.015625 L 251.5 202.914062 C 253.453125 204.867188 256.011719 205.84375 258.570312 205.84375 C 261.132812 205.84375 263.691406 204.867188 265.644531 202.914062 C 269.546875 199.011719 269.546875 192.679688 265.644531 188.773438 L 211.597656 134.726562 C 224.9375 126.910156 240.632812 122.820312 257.613281 122.820312 C 261 122.820312 264.445312 122.984375 267.925781 123.3125 C 297.066406 126.058594 325.613281 139.984375 348.394531 162.542969 C 348.566406 162.726562 348.730469 162.914062 348.910156 163.089844 C 349.027344 163.210938 349.160156 163.308594 349.28125 163.425781 C 371.941406 186.234375 385.933594 214.859375 388.6875 244.074219 C 391.390625 272.734375 382.886719 298.507812 364.742188 316.652344 Z M 471.5625 175.152344 C 467.226562 175.152344 458.226562 172.515625 448.699219 169.722656 C 434.871094 165.671875 417.804688 160.671875 399.210938 158.445312 C 438.257812 135.648438 465.613281 134.277344 471.5625 134.277344 C 482.832031 134.277344 492 143.445312 492 154.714844 C 492 165.984375 482.832031 175.152344 471.5625 175.152344 Z M 471.5625 175.152344 " style=" stroke:none;fill-rule:nonzero;fill:rgb(0%,0%,0%);fill-opacity:1;" />
</g>
</svg>